<svg xmlns="http://www.w3.org/2000/svg" class="qr-svg " viewBox="0 0 57 57">
<defs><style>rect{shape-rendering:crispEdges}</style></defs>
<path class="qr-4 " stroke="transparent" fill="#fff" fill-opacity="1" d="M15 4 h2 v1 h-2Z M18 4 h1 v1 h-1Z M20 4 h1 v1 h-1Z M23 4 h4 v1 h-4Z M29 4 h5 v1 h-5Z M36 4 h1 v1 h-1Z M38 4 h1 v1 h-1Z M14 5 h2 v1 h-2Z M18 5 h1 v1 h-1Z M23 5 h3 v1 h-3Z M28 5 h1 v1 h-1Z M30 5 h1 v1 h-1Z M32 5 h1 v1 h-1Z M35 5 h5 v1 h-5Z M41 5 h1 v1 h-1Z M13 6 h2 v1 h-2Z M17 6 h5 v1 h-5Z M23 6 h2 v1 h-2Z M26 6 h1 v1 h-1Z M30 6 h1 v1 h-1Z M32 6 h2 v1 h-2Z M35 6 h1 v1 h-1Z M37 6 h3 v1 h-3Z M41 6 h1 v1 h-1Z M14 7 h1 v1 h-1Z M17 7 h2 v1 h-2Z M20 7 h2 v1 h-2Z M24 7 h2 v1 h-2Z M27 7 h1 v1 h-1Z M30 7 h1 v1 h-1Z M32 7 h3 v1 h-3Z M36 7 h1 v1 h-1Z M38 7 h1 v1 h-1Z M15 8 h1 v1 h-1Z M17 8 h2 v1 h-2Z M21 8 h1 v1 h-1Z M23 8 h2 v1 h-2Z M31 8 h3 v1 h-3Z M35 8 h5 v1 h-5Z M41 8 h1 v1 h-1Z M15 9 h2 v1 h-2Z M18 9 h3 v1 h-3Z M22 9 h1 v1 h-1Z M24 9 h1 v1 h-1Z M33 9 h1 v1 h-1Z M36 9 h5 v1 h-5Z M13 11 h5 v1 h-5Z M19 11 h3 v1 h-3Z M23 11 h3 v1 h-3Z M31 11 h1 v1 h-1Z M33 11 h6 v1 h-6Z M40 11 h1 v1 h-1Z M16 12 h2 v1 h-2Z M21 12 h1 v1 h-1Z M23 12 h3 v1 h-3Z M32 12 h2 v1 h-2Z M36 12 h1 v1 h-1Z M41 12 h4 v1 h-4Z M4 13 h1 v1 h-1Z M6 13 h1 v1 h-1Z M8 13 h1 v1 h-1Z M12 13 h1 v1 h-1Z M15 13 h1 v1 h-1Z M19 13 h4 v1 h-4Z M26 13 h1 v1 h-1Z M30 13 h3 v1 h-3Z M35 13 h1 v1 h-1Z M37 13 h1 v1 h-1Z M39 13 h1 v1 h-1Z M42 13 h1 v1 h-1Z M44 13 h2 v1 h-2Z M48 13 h1 v1 h-1Z M51 13 h1 v1 h-1Z M6 14 h4 v1 h-4Z M11 14 h3 v1 h-3Z M16 14 h2 v1 h-2Z M19 14 h1 v1 h-1Z M21 14 h1 v1 h-1Z M23 14 h1 v1 h-1Z M25 14 h3 v1 h-3Z M29 14 h1 v1 h-1Z M32 14 h1 v1 h-1Z M35 14 h1 v1 h-1Z M38 14 h1 v1 h-1Z M41 14 h1 v1 h-1Z M43 14 h2 v1 h-2Z M47 14 h4 v1 h-4Z M52 14 h1 v1 h-1Z M5 15 h2 v1 h-2Z M8 15 h2 v1 h-2Z M12 15 h2 v1 h-2Z M17 15 h2 v1 h-2Z M20 15 h3 v1 h-3Z M26 15 h2 v1 h-2Z M30 15 h2 v1 h-2Z M34 15 h3 v1 h-3Z M38 15 h1 v1 h-1Z M41 15 h2 v1 h-2Z M44 15 h2 v1 h-2Z M50 15 h2 v1 h-2Z M4 16 h1 v1 h-1Z M9 16 h1 v1 h-1Z M12 16 h1 v1 h-1Z M14 16 h1 v1 h-1Z M18 16 h3 v1 h-3Z M23 16 h4 v1 h-4Z M28 16 h1 v1 h-1Z M31 16 h2 v1 h-2Z M34 16 h1 v1 h-1Z M36 16 h3 v1 h-3Z M41 16 h3 v1 h-3Z M45 16 h1 v1 h-1Z M47 16 h3 v1 h-3Z M5 17 h1 v1 h-1Z M7 17 h1 v1 h-1Z M9 17 h1 v1 h-1Z M11 17 h2 v1 h-2Z M14 17 h2 v1 h-2Z M17 17 h1 v1 h-1Z M20 17 h3 v1 h-3Z M25 17 h1 v1 h-1Z M27 17 h4 v1 h-4Z M32 17 h1 v1 h-1Z M35 17 h4 v1 h-4Z M40 17 h3 v1 h-3Z M44 17 h2 v1 h-2Z M47 17 h2 v1 h-2Z M50 17 h2 v1 h-2Z M5 18 h4 v1 h-4Z M12 18 h1 v1 h-1Z M14 18 h3 v1 h-3Z M19 18 h5 v1 h-5Z M28 18 h1 v1 h-1Z M31 18 h5 v1 h-5Z M37 18 h2 v1 h-2Z M40 18 h1 v1 h-1Z M44 18 h1 v1 h-1Z M46 18 h5 v1 h-5Z M4 19 h1 v1 h-1Z M7 19 h2 v1 h-2Z M14 19 h1 v1 h-1Z M16 19 h4 v1 h-4Z M21 19 h1 v1 h-1Z M25 19 h1 v1 h-1Z M28 19 h2 v1 h-2Z M32 19 h1 v1 h-1Z M34 19 h4 v1 h-4Z M39 19 h1 v1 h-1Z M44 19 h2 v1 h-2Z M50 19 h3 v1 h-3Z M4 20 h1 v1 h-1Z M8 20 h2 v1 h-2Z M16 20 h1 v1 h-1Z M20 20 h1 v1 h-1Z M24 20 h1 v1 h-1Z M26 20 h2 v1 h-2Z M29 20 h1 v1 h-1Z M31 20 h1 v1 h-1Z M33 20 h2 v1 h-2Z M40 20 h2 v1 h-2Z M45 20 h2 v1 h-2Z M48 20 h4 v1 h-4Z M6 21 h2 v1 h-2Z M9 21 h1 v1 h-1Z M12 21 h1 v1 h-1Z M15 21 h2 v1 h-2Z M22 21 h6 v1 h-6Z M29 21 h2 v1 h-2Z M34 21 h2 v1 h-2Z M37 21 h1 v1 h-1Z M39 21 h2 v1 h-2Z M43 21 h2 v1 h-2Z M48 21 h1 v1 h-1Z M50 21 h2 v1 h-2Z M4 22 h2 v1 h-2Z M12 22 h2 v1 h-2Z M16 22 h2 v1 h-2Z M20 22 h2 v1 h-2Z M24 22 h1 v1 h-1Z M27 22 h1 v1 h-1Z M29 22 h3 v1 h-3Z M33 22 h1 v1 h-1Z M38 22 h1 v1 h-1Z M40 22 h5 v1 h-5Z M46 22 h2 v1 h-2Z M49 22 h1 v1 h-1Z M52 22 h1 v1 h-1Z M4 23 h2 v1 h-2Z M11 23 h2 v1 h-2Z M14 23 h1 v1 h-1Z M16 23 h1 v1 h-1Z M18 23 h1 v1 h-1Z M20 23 h5 v1 h-5Z M26 23 h3 v1 h-3Z M31 23 h1 v1 h-1Z M33 23 h3 v1 h-3Z M38 23 h2 v1 h-2Z M41 23 h2 v1 h-2Z M44 23 h2 v1 h-2Z M49 23 h4 v1 h-4Z M5 24 h2 v1 h-2Z M8 24 h2 v1 h-2Z M14 24 h1 v1 h-1Z M17 24 h1 v1 h-1Z M19 24 h1 v1 h-1Z M27 24 h3 v1 h-3Z M31 24 h4 v1 h-4Z M36 24 h1 v1 h-1Z M38 24 h1 v1 h-1Z M44 24 h2 v1 h-2Z M47 24 h2 v1 h-2Z M50 24 h1 v1 h-1Z M52 24 h1 v1 h-1Z M4 25 h1 v1 h-1Z M6 25 h3 v1 h-3Z M23 25 h4 v1 h-4Z M28 25 h1 v1 h-1Z M36 25 h3 v1 h-3Z M40 25 h1 v1 h-1Z M42 25 h1 v1 h-1Z M44 25 h2 v1 h-2Z M47 25 h2 v1 h-2Z M50 25 h1 v1 h-1Z M52 25 h1 v1 h-1Z M4 26 h2 v1 h-2Z M7 26 h1 v1 h-1Z M13 26 h4 v1 h-4Z M19 26 h1 v1 h-1Z M25 26 h1 v1 h-1Z M31 26 h1 v1 h-1Z M33 26 h1 v1 h-1Z M35 26 h5 v1 h-5Z M41 26 h3 v1 h-3Z M49 26 h1 v1 h-1Z M51 26 h1 v1 h-1Z M4 27 h2 v1 h-2Z M7 27 h1 v1 h-1Z M13 27 h1 v1 h-1Z M16 27 h1 v1 h-1Z M18 27 h2 v1 h-2Z M24 27 h1 v1 h-1Z M31 27 h1 v1 h-1Z M35 27 h2 v1 h-2Z M38 27 h1 v1 h-1Z M40 27 h3 v1 h-3Z M51 27 h2 v1 h-2Z M4 28 h2 v1 h-2Z M7 28 h1 v1 h-1Z M13 28 h5 v1 h-5Z M20 28 h3 v1 h-3Z M32 28 h1 v1 h-1Z M35 28 h3 v1 h-3Z M42 28 h1 v1 h-1Z M4 29 h1 v1 h-1Z M6 29 h1 v1 h-1Z M18 29 h4 v1 h-4Z M24 29 h1 v1 h-1Z M31 29 h3 v1 h-3Z M36 29 h1 v1 h-1Z M42 29 h1 v1 h-1Z M50 29 h3 v1 h-3Z M4 30 h4 v1 h-4Z M18 30 h1 v1 h-1Z M25 30 h1 v1 h-1Z M32 30 h1 v1 h-1Z M34 30 h2 v1 h-2Z M40 30 h1 v1 h-1Z M49 30 h2 v1 h-2Z M6 31 h1 v1 h-1Z M9 31 h1 v1 h-1Z M13 31 h1 v1 h-1Z M16 31 h1 v1 h-1Z M18 31 h1 v1 h-1Z M21 31 h1 v1 h-1Z M23 31 h3 v1 h-3Z M27 31 h1 v1 h-1Z M29 31 h2 v1 h-2Z M34 31 h3 v1 h-3Z M38 31 h2 v1 h-2Z M41 31 h2 v1 h-2Z M46 31 h3 v1 h-3Z M50 31 h1 v1 h-1Z M52 31 h1 v1 h-1Z M4 32 h2 v1 h-2Z M7 32 h2 v1 h-2Z M13 32 h1 v1 h-1Z M15 32 h1 v1 h-1Z M21 32 h1 v1 h-1Z M24 32 h2 v1 h-2Z M27 32 h1 v1 h-1Z M29 32 h1 v1 h-1Z M31 32 h2 v1 h-2Z M36 32 h1 v1 h-1Z M41 32 h4 v1 h-4Z M46 32 h4 v1 h-4Z M52 32 h1 v1 h-1Z M7 33 h2 v1 h-2Z M11 33 h3 v1 h-3Z M18 33 h1 v1 h-1Z M21 33 h1 v1 h-1Z M23 33 h4 v1 h-4Z M28 33 h1 v1 h-1Z M34 33 h1 v1 h-1Z M36 33 h1 v1 h-1Z M38 33 h6 v1 h-6Z M45 33 h2 v1 h-2Z M49 33 h1 v1 h-1Z M51 33 h1 v1 h-1Z M4 34 h1 v1 h-1Z M7 34 h2 v1 h-2Z M13 34 h1 v1 h-1Z M15 34 h1 v1 h-1Z M20 34 h3 v1 h-3Z M24 34 h1 v1 h-1Z M27 34 h2 v1 h-2Z M30 34 h2 v1 h-2Z M33 34 h1 v1 h-1Z M36 34 h1 v1 h-1Z M38 34 h6 v1 h-6Z M46 34 h2 v1 h-2Z M4 35 h2 v1 h-2Z M9 35 h1 v1 h-1Z M13 35 h2 v1 h-2Z M20 35 h5 v1 h-5Z M26 35 h1 v1 h-1Z M28 35 h1 v1 h-1Z M31 35 h3 v1 h-3Z M36 35 h1 v1 h-1Z M38 35 h1 v1 h-1Z M41 35 h5 v1 h-5Z M49 35 h1 v1 h-1Z M51 35 h1 v1 h-1Z M4 36 h1 v1 h-1Z M6 36 h1 v1 h-1Z M8 36 h1 v1 h-1Z M11 36 h3 v1 h-3Z M15 36 h2 v1 h-2Z M18 36 h1 v1 h-1Z M20 36 h1 v1 h-1Z M23 36 h2 v1 h-2Z M26 36 h1 v1 h-1Z M29 36 h2 v1 h-2Z M32 36 h1 v1 h-1Z M35 36 h5 v1 h-5Z M42 36 h1 v1 h-1Z M44 36 h2 v1 h-2Z M50 36 h3 v1 h-3Z M4 37 h1 v1 h-1Z M6 37 h1 v1 h-1Z M8 37 h2 v1 h-2Z M11 37 h7 v1 h-7Z M27 37 h1 v1 h-1Z M29 37 h5 v1 h-5Z M36 37 h1 v1 h-1Z M38 37 h1 v1 h-1Z M41 37 h2 v1 h-2Z M44 37 h7 v1 h-7Z M4 38 h2 v1 h-2Z M7 38 h1 v1 h-1Z M11 38 h2 v1 h-2Z M15 38 h5 v1 h-5Z M23 38 h1 v1 h-1Z M26 38 h1 v1 h-1Z M29 38 h2 v1 h-2Z M32 38 h1 v1 h-1Z M35 38 h5 v1 h-5Z M42 38 h1 v1 h-1Z M44 38 h2 v1 h-2Z M47 38 h2 v1 h-2Z M50 38 h2 v1 h-2Z M6 39 h1 v1 h-1Z M9 39 h1 v1 h-1Z M12 39 h1 v1 h-1Z M15 39 h6 v1 h-6Z M22 39 h1 v1 h-1Z M27 39 h1 v1 h-1Z M33 39 h7 v1 h-7Z M41 39 h2 v1 h-2Z M45 39 h1 v1 h-1Z M47 39 h2 v1 h-2Z M50 39 h1 v1 h-1Z M5 40 h3 v1 h-3Z M9 40 h1 v1 h-1Z M12 40 h1 v1 h-1Z M14 40 h1 v1 h-1Z M16 40 h2 v1 h-2Z M19 40 h4 v1 h-4Z M26 40 h1 v1 h-1Z M28 40 h1 v1 h-1Z M31 40 h2 v1 h-2Z M34 40 h1 v1 h-1Z M36 40 h1 v1 h-1Z M44 40 h1 v1 h-1Z M47 40 h1 v1 h-1Z M50 40 h2 v1 h-2Z M4 41 h2 v1 h-2Z M7 41 h2 v1 h-2Z M13 41 h1 v1 h-1Z M15 41 h1 v1 h-1Z M17 41 h2 v1 h-2Z M21 41 h1 v1 h-1Z M23 41 h5 v1 h-5Z M29 41 h1 v1 h-1Z M31 41 h2 v1 h-2Z M35 41 h1 v1 h-1Z M37 41 h4 v1 h-4Z M42 41 h1 v1 h-1Z M44 41 h2 v1 h-2Z M47 41 h1 v1 h-1Z M50 41 h1 v1 h-1Z M52 41 h1 v1 h-1Z M11 42 h3 v1 h-3Z M18 42 h2 v1 h-2Z M21 42 h1 v1 h-1Z M23 42 h2 v1 h-2Z M27 42 h2 v1 h-2Z M32 42 h4 v1 h-4Z M38 42 h3 v1 h-3Z M42 42 h1 v1 h-1Z M45 42 h1 v1 h-1Z M49 42 h3 v1 h-3Z M12 43 h1 v1 h-1Z M15 43 h2 v1 h-2Z M20 43 h5 v1 h-5Z M26 43 h2 v1 h-2Z M29 43 h3 v1 h-3Z M33 43 h1 v1 h-1Z M38 43 h12 v1 h-12Z M12 44 h1 v1 h-1Z M15 44 h4 v1 h-4Z M20 44 h3 v1 h-3Z M24 44 h1 v1 h-1Z M32 44 h2 v1 h-2Z M36 44 h7 v1 h-7Z M50 44 h2 v1 h-2Z M13 45 h3 v1 h-3Z M17 45 h1 v1 h-1Z M19 45 h1 v1 h-1Z M21 45 h3 v1 h-3Z M25 45 h1 v1 h-1Z M32 45 h2 v1 h-2Z M35 45 h1 v1 h-1Z M37 45 h2 v1 h-2Z M40 45 h1 v1 h-1Z M50 45 h3 v1 h-3Z M13 46 h1 v1 h-1Z M20 46 h3 v1 h-3Z M34 46 h1 v1 h-1Z M39 46 h1 v1 h-1Z M41 46 h3 v1 h-3Z M50 46 h1 v1 h-1Z M13 47 h5 v1 h-5Z M21 47 h1 v1 h-1Z M23 47 h2 v1 h-2Z M33 47 h1 v1 h-1Z M36 47 h1 v1 h-1Z M39 47 h1 v1 h-1Z M41 47 h1 v1 h-1Z M50 47 h3 v1 h-3Z M13 48 h4 v1 h-4Z M19 48 h6 v1 h-6Z M31 48 h2 v1 h-2Z M34 48 h1 v1 h-1Z M36 48 h1 v1 h-1Z M39 48 h1 v1 h-1Z M41 48 h1 v1 h-1Z M43 48 h1 v1 h-1Z M49 48 h1 v1 h-1Z M13 49 h2 v1 h-2Z M16 49 h1 v1 h-1Z M18 49 h3 v1 h-3Z M25 49 h1 v1 h-1Z M27 49 h1 v1 h-1Z M29 49 h3 v1 h-3Z M33 49 h4 v1 h-4Z M38 49 h2 v1 h-2Z M41 49 h5 v1 h-5Z M50 49 h3 v1 h-3Z M14 50 h1 v1 h-1Z M16 50 h1 v1 h-1Z M18 50 h6 v1 h-6Z M26 50 h1 v1 h-1Z M28 50 h1 v1 h-1Z M30 50 h2 v1 h-2Z M33 50 h3 v1 h-3Z M38 50 h1 v1 h-1Z M41 50 h2 v1 h-2Z M44 50 h2 v1 h-2Z M47 50 h4 v1 h-4Z M13 51 h1 v1 h-1Z M17 51 h1 v1 h-1Z M21 51 h1 v1 h-1Z M25 51 h3 v1 h-3Z M29 51 h2 v1 h-2Z M32 51 h1 v1 h-1Z M34 51 h4 v1 h-4Z M39 51 h1 v1 h-1Z M43 51 h3 v1 h-3Z M47 51 h1 v1 h-1Z M50 51 h2 v1 h-2Z M13 52 h1 v1 h-1Z M16 52 h1 v1 h-1Z M24 52 h1 v1 h-1Z M26 52 h1 v1 h-1Z M30 52 h2 v1 h-2Z M33 52 h2 v1 h-2Z M40 52 h2 v1 h-2Z M44 52 h1 v1 h-1Z M46 52 h2 v1 h-2Z M49 52 h2 v1 h-2Z " /><path class="qr-6 " stroke="transparent" fill="#fff" fill-opacity="1" d="M5 5 h5 v1 h-5Z M47 5 h5 v1 h-5Z M5 6 h1 v1 h-1Z M9 6 h1 v1 h-1Z M47 6 h1 v1 h-1Z M51 6 h1 v1 h-1Z M5 7 h1 v1 h-1Z M9 7 h1 v1 h-1Z M47 7 h1 v1 h-1Z M51 7 h1 v1 h-1Z M5 8 h1 v1 h-1Z M9 8 h1 v1 h-1Z M47 8 h1 v1 h-1Z M51 8 h1 v1 h-1Z M5 9 h5 v1 h-5Z M47 9 h5 v1 h-5Z M5 47 h5 v1 h-5Z M5 48 h1 v1 h-1Z M9 48 h1 v1 h-1Z M5 49 h1 v1 h-1Z M9 49 h1 v1 h-1Z M5 50 h1 v1 h-1Z M9 50 h1 v1 h-1Z M5 51 h5 v1 h-5Z " /><path class="qr-8 " stroke="transparent" fill="#fff" fill-opacity="1" d="M11 4 h1 v1 h-1Z M45 4 h1 v1 h-1Z M11 5 h1 v1 h-1Z M45 5 h1 v1 h-1Z M11 6 h1 v1 h-1Z M45 6 h1 v1 h-1Z M11 7 h1 v1 h-1Z M45 7 h1 v1 h-1Z M11 8 h1 v1 h-1Z M45 8 h1 v1 h-1Z M11 9 h1 v1 h-1Z M45 9 h1 v1 h-1Z M11 10 h1 v1 h-1Z M45 10 h1 v1 h-1Z M4 11 h8 v1 h-8Z M45 11 h8 v1 h-8Z M4 45 h8 v1 h-8Z M11 46 h1 v1 h-1Z M11 47 h1 v1 h-1Z M11 48 h1 v1 h-1Z M11 49 h1 v1 h-1Z M11 50 h1 v1 h-1Z M11 51 h1 v1 h-1Z M11 52 h1 v1 h-1Z " /><path class="qr-10 " stroke="transparent" fill="#fff" fill-opacity="1" d="M27 9 h3 v1 h-3Z M27 10 h1 v1 h-1Z M29 10 h1 v1 h-1Z M27 11 h3 v1 h-3Z M9 27 h3 v1 h-3Z M27 27 h3 v1 h-3Z M45 27 h3 v1 h-3Z M9 28 h1 v1 h-1Z M11 28 h1 v1 h-1Z M27 28 h1 v1 h-1Z M29 28 h1 v1 h-1Z M45 28 h1 v1 h-1Z M47 28 h1 v1 h-1Z M9 29 h3 v1 h-3Z M27 29 h3 v1 h-3Z M45 29 h3 v1 h-3Z M27 45 h3 v1 h-3Z M45 45 h3 v1 h-3Z M27 46 h1 v1 h-1Z M29 46 h1 v1 h-1Z M45 46 h1 v1 h-1Z M47 46 h1 v1 h-1Z M27 47 h3 v1 h-3Z M45 47 h3 v1 h-3Z " /><path class="qr-12 " stroke="transparent" fill="#fff" fill-opacity="1" d="M13 10 h1 v1 h-1Z M15 10 h1 v1 h-1Z M17 10 h1 v1 h-1Z M19 10 h1 v1 h-1Z M21 10 h1 v1 h-1Z M23 10 h1 v1 h-1Z M25 10 h1 v1 h-1Z M31 10 h1 v1 h-1Z M33 10 h1 v1 h-1Z M35 10 h1 v1 h-1Z M37 10 h1 v1 h-1Z M39 10 h1 v1 h-1Z M41 10 h1 v1 h-1Z M43 10 h1 v1 h-1Z M10 13 h1 v1 h-1Z M10 15 h1 v1 h-1Z M10 17 h1 v1 h-1Z M10 19 h1 v1 h-1Z M10 21 h1 v1 h-1Z M10 23 h1 v1 h-1Z M10 25 h1 v1 h-1Z M10 31 h1 v1 h-1Z M10 33 h1 v1 h-1Z M10 35 h1 v1 h-1Z M10 37 h1 v1 h-1Z M10 39 h1 v1 h-1Z M10 41 h1 v1 h-1Z M10 43 h1 v1 h-1Z " /><path class="qr-14 " stroke="transparent" fill="#fff" fill-opacity="1" d="M12 4 h1 v1 h-1Z M12 5 h1 v1 h-1Z M5 12 h1 v1 h-1Z M11 12 h2 v1 h-2Z M45 12 h1 v1 h-1Z M51 12 h2 v1 h-2Z M12 46 h1 v1 h-1Z M12 51 h1 v1 h-1Z " /><path class="qr-16 " stroke="transparent" fill="#fff" fill-opacity="1" d="M42 4 h2 v1 h-2Z M42 6 h1 v1 h-1Z M42 7 h1 v1 h-1Z M44 7 h1 v1 h-1Z M42 8 h3 v1 h-3Z M43 9 h2 v1 h-2Z M4 42 h1 v1 h-1Z M6 42 h3 v1 h-3Z M4 43 h1 v1 h-1Z M8 43 h2 v1 h-2Z M7 44 h3 v1 h-3Z " /><path class="qr-18 " stroke="transparent" fill="#fff" fill-opacity="1" d="M0 0 h57 v1 h-57Z M0 1 h57 v1 h-57Z M0 2 h57 v1 h-57Z M0 3 h57 v1 h-57Z M0 4 h4 v1 h-4Z M53 4 h4 v1 h-4Z M0 5 h4 v1 h-4Z M53 5 h4 v1 h-4Z M0 6 h4 v1 h-4Z M53 6 h4 v1 h-4Z M0 7 h4 v1 h-4Z M53 7 h4 v1 h-4Z M0 8 h4 v1 h-4Z M53 8 h4 v1 h-4Z M0 9 h4 v1 h-4Z M53 9 h4 v1 h-4Z M0 10 h4 v1 h-4Z M53 10 h4 v1 h-4Z M0 11 h4 v1 h-4Z M53 11 h4 v1 h-4Z M0 12 h4 v1 h-4Z M53 12 h4 v1 h-4Z M0 13 h4 v1 h-4Z M53 13 h4 v1 h-4Z M0 14 h4 v1 h-4Z M53 14 h4 v1 h-4Z M0 15 h4 v1 h-4Z M53 15 h4 v1 h-4Z M0 16 h4 v1 h-4Z M53 16 h4 v1 h-4Z M0 17 h4 v1 h-4Z M53 17 h4 v1 h-4Z M0 18 h4 v1 h-4Z M53 18 h4 v1 h-4Z M0 19 h4 v1 h-4Z M53 19 h4 v1 h-4Z M0 20 h4 v1 h-4Z M53 20 h4 v1 h-4Z M0 21 h4 v1 h-4Z M53 21 h4 v1 h-4Z M0 22 h4 v1 h-4Z M53 22 h4 v1 h-4Z M0 23 h4 v1 h-4Z M53 23 h4 v1 h-4Z M0 24 h4 v1 h-4Z M53 24 h4 v1 h-4Z M0 25 h4 v1 h-4Z M53 25 h4 v1 h-4Z M0 26 h4 v1 h-4Z M53 26 h4 v1 h-4Z M0 27 h4 v1 h-4Z M53 27 h4 v1 h-4Z M0 28 h4 v1 h-4Z M53 28 h4 v1 h-4Z M0 29 h4 v1 h-4Z M53 29 h4 v1 h-4Z M0 30 h4 v1 h-4Z M53 30 h4 v1 h-4Z M0 31 h4 v1 h-4Z M53 31 h4 v1 h-4Z M0 32 h4 v1 h-4Z M53 32 h4 v1 h-4Z M0 33 h4 v1 h-4Z M53 33 h4 v1 h-4Z M0 34 h4 v1 h-4Z M53 34 h4 v1 h-4Z M0 35 h4 v1 h-4Z M53 35 h4 v1 h-4Z M0 36 h4 v1 h-4Z M53 36 h4 v1 h-4Z M0 37 h4 v1 h-4Z M53 37 h4 v1 h-4Z M0 38 h4 v1 h-4Z M53 38 h4 v1 h-4Z M0 39 h4 v1 h-4Z M53 39 h4 v1 h-4Z M0 40 h4 v1 h-4Z M53 40 h4 v1 h-4Z M0 41 h4 v1 h-4Z M53 41 h4 v1 h-4Z M0 42 h4 v1 h-4Z M53 42 h4 v1 h-4Z M0 43 h4 v1 h-4Z M53 43 h4 v1 h-4Z M0 44 h4 v1 h-4Z M53 44 h4 v1 h-4Z M0 45 h4 v1 h-4Z M53 45 h4 v1 h-4Z M0 46 h4 v1 h-4Z M53 46 h4 v1 h-4Z M0 47 h4 v1 h-4Z M53 47 h4 v1 h-4Z M0 48 h4 v1 h-4Z M53 48 h4 v1 h-4Z M0 49 h4 v1 h-4Z M53 49 h4 v1 h-4Z M0 50 h4 v1 h-4Z M53 50 h4 v1 h-4Z M0 51 h4 v1 h-4Z M53 51 h4 v1 h-4Z M0 52 h4 v1 h-4Z M53 52 h4 v1 h-4Z M0 53 h57 v1 h-57Z M0 54 h57 v1 h-57Z M0 55 h57 v1 h-57Z M0 56 h57 v1 h-57Z " /><path class="qr-512 " stroke="transparent" fill="#000" fill-opacity="1" d="M12 45 h1 v1 h-1Z " /><path class="qr-1024 " stroke="transparent" fill="#000" fill-opacity="1" d="M13 4 h2 v1 h-2Z M17 4 h1 v1 h-1Z M19 4 h1 v1 h-1Z M21 4 h2 v1 h-2Z M27 4 h2 v1 h-2Z M34 4 h2 v1 h-2Z M37 4 h1 v1 h-1Z M39 4 h3 v1 h-3Z M13 5 h1 v1 h-1Z M16 5 h2 v1 h-2Z M19 5 h4 v1 h-4Z M26 5 h2 v1 h-2Z M29 5 h1 v1 h-1Z M31 5 h1 v1 h-1Z M33 5 h2 v1 h-2Z M40 5 h1 v1 h-1Z M15 6 h2 v1 h-2Z M22 6 h1 v1 h-1Z M25 6 h1 v1 h-1Z M27 6 h3 v1 h-3Z M31 6 h1 v1 h-1Z M34 6 h1 v1 h-1Z M36 6 h1 v1 h-1Z M40 6 h1 v1 h-1Z M13 7 h1 v1 h-1Z M15 7 h2 v1 h-2Z M19 7 h1 v1 h-1Z M22 7 h2 v1 h-2Z M26 7 h1 v1 h-1Z M28 7 h2 v1 h-2Z M31 7 h1 v1 h-1Z M35 7 h1 v1 h-1Z M37 7 h1 v1 h-1Z M39 7 h3 v1 h-3Z M13 8 h2 v1 h-2Z M16 8 h1 v1 h-1Z M19 8 h2 v1 h-2Z M22 8 h1 v1 h-1Z M25 8 h1 v1 h-1Z M34 8 h1 v1 h-1Z M40 8 h1 v1 h-1Z M13 9 h2 v1 h-2Z M17 9 h1 v1 h-1Z M21 9 h1 v1 h-1Z M23 9 h1 v1 h-1Z M25 9 h1 v1 h-1Z M31 9 h2 v1 h-2Z M34 9 h2 v1 h-2Z M41 9 h1 v1 h-1Z M18 11 h1 v1 h-1Z M22 11 h1 v1 h-1Z M32 11 h1 v1 h-1Z M39 11 h1 v1 h-1Z M41 11 h4 v1 h-4Z M13 12 h3 v1 h-3Z M18 12 h3 v1 h-3Z M22 12 h1 v1 h-1Z M31 12 h1 v1 h-1Z M34 12 h2 v1 h-2Z M37 12 h4 v1 h-4Z M5 13 h1 v1 h-1Z M7 13 h1 v1 h-1Z M9 13 h1 v1 h-1Z M11 13 h1 v1 h-1Z M13 13 h2 v1 h-2Z M16 13 h3 v1 h-3Z M23 13 h3 v1 h-3Z M27 13 h3 v1 h-3Z M33 13 h2 v1 h-2Z M36 13 h1 v1 h-1Z M38 13 h1 v1 h-1Z M40 13 h2 v1 h-2Z M43 13 h1 v1 h-1Z M46 13 h2 v1 h-2Z M49 13 h2 v1 h-2Z M52 13 h1 v1 h-1Z M4 14 h2 v1 h-2Z M14 14 h2 v1 h-2Z M18 14 h1 v1 h-1Z M20 14 h1 v1 h-1Z M22 14 h1 v1 h-1Z M24 14 h1 v1 h-1Z M28 14 h1 v1 h-1Z M30 14 h2 v1 h-2Z M33 14 h2 v1 h-2Z M36 14 h2 v1 h-2Z M39 14 h2 v1 h-2Z M42 14 h1 v1 h-1Z M45 14 h2 v1 h-2Z M51 14 h1 v1 h-1Z M4 15 h1 v1 h-1Z M7 15 h1 v1 h-1Z M11 15 h1 v1 h-1Z M14 15 h3 v1 h-3Z M19 15 h1 v1 h-1Z M23 15 h3 v1 h-3Z M28 15 h2 v1 h-2Z M32 15 h2 v1 h-2Z M37 15 h1 v1 h-1Z M39 15 h2 v1 h-2Z M43 15 h1 v1 h-1Z M46 15 h4 v1 h-4Z M52 15 h1 v1 h-1Z M5 16 h4 v1 h-4Z M11 16 h1 v1 h-1Z M13 16 h1 v1 h-1Z M15 16 h3 v1 h-3Z M21 16 h2 v1 h-2Z M27 16 h1 v1 h-1Z M29 16 h2 v1 h-2Z M33 16 h1 v1 h-1Z M35 16 h1 v1 h-1Z M39 16 h2 v1 h-2Z M44 16 h1 v1 h-1Z M46 16 h1 v1 h-1Z M50 16 h3 v1 h-3Z M4 17 h1 v1 h-1Z M6 17 h1 v1 h-1Z M8 17 h1 v1 h-1Z M13 17 h1 v1 h-1Z M16 17 h1 v1 h-1Z M18 17 h2 v1 h-2Z M23 17 h2 v1 h-2Z M26 17 h1 v1 h-1Z M31 17 h1 v1 h-1Z M33 17 h2 v1 h-2Z M39 17 h1 v1 h-1Z M43 17 h1 v1 h-1Z M46 17 h1 v1 h-1Z M49 17 h1 v1 h-1Z M52 17 h1 v1 h-1Z M4 18 h1 v1 h-1Z M9 18 h1 v1 h-1Z M11 18 h1 v1 h-1Z M13 18 h1 v1 h-1Z M17 18 h2 v1 h-2Z M24 18 h4 v1 h-4Z M29 18 h2 v1 h-2Z M36 18 h1 v1 h-1Z M39 18 h1 v1 h-1Z M41 18 h3 v1 h-3Z M45 18 h1 v1 h-1Z M51 18 h2 v1 h-2Z M5 19 h2 v1 h-2Z M9 19 h1 v1 h-1Z M11 19 h3 v1 h-3Z M15 19 h1 v1 h-1Z M20 19 h1 v1 h-1Z M22 19 h3 v1 h-3Z M26 19 h2 v1 h-2Z M30 19 h2 v1 h-2Z M33 19 h1 v1 h-1Z M38 19 h1 v1 h-1Z M40 19 h4 v1 h-4Z M46 19 h4 v1 h-4Z M5 20 h3 v1 h-3Z M11 20 h5 v1 h-5Z M17 20 h3 v1 h-3Z M21 20 h3 v1 h-3Z M25 20 h1 v1 h-1Z M28 20 h1 v1 h-1Z M30 20 h1 v1 h-1Z M32 20 h1 v1 h-1Z M35 20 h5 v1 h-5Z M42 20 h3 v1 h-3Z M47 20 h1 v1 h-1Z M52 20 h1 v1 h-1Z M4 21 h2 v1 h-2Z M8 21 h1 v1 h-1Z M11 21 h1 v1 h-1Z M13 21 h2 v1 h-2Z M17 21 h5 v1 h-5Z M28 21 h1 v1 h-1Z M31 21 h3 v1 h-3Z M36 21 h1 v1 h-1Z M38 21 h1 v1 h-1Z M41 21 h2 v1 h-2Z M45 21 h3 v1 h-3Z M49 21 h1 v1 h-1Z M52 21 h1 v1 h-1Z M6 22 h4 v1 h-4Z M11 22 h1 v1 h-1Z M14 22 h2 v1 h-2Z M18 22 h2 v1 h-2Z M22 22 h2 v1 h-2Z M25 22 h2 v1 h-2Z M28 22 h1 v1 h-1Z M32 22 h1 v1 h-1Z M34 22 h4 v1 h-4Z M39 22 h1 v1 h-1Z M45 22 h1 v1 h-1Z M48 22 h1 v1 h-1Z M50 22 h2 v1 h-2Z M6 23 h4 v1 h-4Z M13 23 h1 v1 h-1Z M15 23 h1 v1 h-1Z M17 23 h1 v1 h-1Z M19 23 h1 v1 h-1Z M25 23 h1 v1 h-1Z M29 23 h2 v1 h-2Z M32 23 h1 v1 h-1Z M36 23 h2 v1 h-2Z M40 23 h1 v1 h-1Z M43 23 h1 v1 h-1Z M46 23 h3 v1 h-3Z M4 24 h1 v1 h-1Z M7 24 h1 v1 h-1Z M11 24 h3 v1 h-3Z M15 24 h2 v1 h-2Z M18 24 h1 v1 h-1Z M20 24 h7 v1 h-7Z M30 24 h1 v1 h-1Z M35 24 h1 v1 h-1Z M37 24 h1 v1 h-1Z M39 24 h5 v1 h-5Z M46 24 h1 v1 h-1Z M49 24 h1 v1 h-1Z M51 24 h1 v1 h-1Z M5 25 h1 v1 h-1Z M9 25 h1 v1 h-1Z M11 25 h12 v1 h-12Z M27 25 h1 v1 h-1Z M29 25 h7 v1 h-7Z M39 25 h1 v1 h-1Z M41 25 h1 v1 h-1Z M43 25 h1 v1 h-1Z M46 25 h1 v1 h-1Z M49 25 h1 v1 h-1Z M51 25 h1 v1 h-1Z M6 26 h1 v1 h-1Z M17 26 h2 v1 h-2Z M20 26 h5 v1 h-5Z M32 26 h1 v1 h-1Z M34 26 h1 v1 h-1Z M40 26 h1 v1 h-1Z M50 26 h1 v1 h-1Z M52 26 h1 v1 h-1Z M6 27 h1 v1 h-1Z M14 27 h2 v1 h-2Z M17 27 h1 v1 h-1Z M20 27 h4 v1 h-4Z M25 27 h1 v1 h-1Z M32 27 h3 v1 h-3Z M37 27 h1 v1 h-1Z M39 27 h1 v1 h-1Z M43 27 h1 v1 h-1Z M49 27 h2 v1 h-2Z M6 28 h1 v1 h-1Z M18 28 h2 v1 h-2Z M23 28 h3 v1 h-3Z M31 28 h1 v1 h-1Z M33 28 h2 v1 h-2Z M38 28 h4 v1 h-4Z M43 28 h1 v1 h-1Z M49 28 h4 v1 h-4Z M5 29 h1 v1 h-1Z M7 29 h1 v1 h-1Z M13 29 h5 v1 h-5Z M22 29 h2 v1 h-2Z M25 29 h1 v1 h-1Z M34 29 h2 v1 h-2Z M37 29 h5 v1 h-5Z M43 29 h1 v1 h-1Z M49 29 h1 v1 h-1Z M13 30 h5 v1 h-5Z M19 30 h6 v1 h-6Z M31 30 h1 v1 h-1Z M33 30 h1 v1 h-1Z M36 30 h4 v1 h-4Z M41 30 h3 v1 h-3Z M51 30 h2 v1 h-2Z M4 31 h2 v1 h-2Z M7 31 h2 v1 h-2Z M11 31 h2 v1 h-2Z M14 31 h2 v1 h-2Z M17 31 h1 v1 h-1Z M19 31 h2 v1 h-2Z M22 31 h1 v1 h-1Z M26 31 h1 v1 h-1Z M28 31 h1 v1 h-1Z M31 31 h3 v1 h-3Z M37 31 h1 v1 h-1Z M40 31 h1 v1 h-1Z M43 31 h3 v1 h-3Z M49 31 h1 v1 h-1Z M51 31 h1 v1 h-1Z M6 32 h1 v1 h-1Z M9 32 h1 v1 h-1Z M11 32 h2 v1 h-2Z M14 32 h1 v1 h-1Z M16 32 h5 v1 h-5Z M22 32 h2 v1 h-2Z M26 32 h1 v1 h-1Z M28 32 h1 v1 h-1Z M30 32 h1 v1 h-1Z M33 32 h3 v1 h-3Z M37 32 h4 v1 h-4Z M45 32 h1 v1 h-1Z M50 32 h2 v1 h-2Z M4 33 h3 v1 h-3Z M9 33 h1 v1 h-1Z M14 33 h4 v1 h-4Z M19 33 h2 v1 h-2Z M22 33 h1 v1 h-1Z M27 33 h1 v1 h-1Z M29 33 h5 v1 h-5Z M35 33 h1 v1 h-1Z M37 33 h1 v1 h-1Z M44 33 h1 v1 h-1Z M47 33 h2 v1 h-2Z M50 33 h1 v1 h-1Z M52 33 h1 v1 h-1Z M5 34 h2 v1 h-2Z M9 34 h1 v1 h-1Z M11 34 h2 v1 h-2Z M14 34 h1 v1 h-1Z M16 34 h4 v1 h-4Z M23 34 h1 v1 h-1Z M25 34 h2 v1 h-2Z M29 34 h1 v1 h-1Z M32 34 h1 v1 h-1Z M34 34 h2 v1 h-2Z M37 34 h1 v1 h-1Z M44 34 h2 v1 h-2Z M48 34 h5 v1 h-5Z M6 35 h3 v1 h-3Z M11 35 h2 v1 h-2Z M15 35 h5 v1 h-5Z M25 35 h1 v1 h-1Z M27 35 h1 v1 h-1Z M29 35 h2 v1 h-2Z M34 35 h2 v1 h-2Z M37 35 h1 v1 h-1Z M39 35 h2 v1 h-2Z M46 35 h3 v1 h-3Z M50 35 h1 v1 h-1Z M52 35 h1 v1 h-1Z M5 36 h1 v1 h-1Z M7 36 h1 v1 h-1Z M9 36 h1 v1 h-1Z M14 36 h1 v1 h-1Z M17 36 h1 v1 h-1Z M19 36 h1 v1 h-1Z M21 36 h2 v1 h-2Z M25 36 h1 v1 h-1Z M27 36 h2 v1 h-2Z M31 36 h1 v1 h-1Z M33 36 h2 v1 h-2Z M40 36 h2 v1 h-2Z M43 36 h1 v1 h-1Z M46 36 h4 v1 h-4Z M5 37 h1 v1 h-1Z M7 37 h1 v1 h-1Z M18 37 h9 v1 h-9Z M28 37 h1 v1 h-1Z M34 37 h2 v1 h-2Z M37 37 h1 v1 h-1Z M39 37 h2 v1 h-2Z M43 37 h1 v1 h-1Z M51 37 h2 v1 h-2Z M6 38 h1 v1 h-1Z M8 38 h2 v1 h-2Z M13 38 h2 v1 h-2Z M20 38 h3 v1 h-3Z M24 38 h2 v1 h-2Z M27 38 h2 v1 h-2Z M31 38 h1 v1 h-1Z M33 38 h2 v1 h-2Z M40 38 h2 v1 h-2Z M43 38 h1 v1 h-1Z M46 38 h1 v1 h-1Z M49 38 h1 v1 h-1Z M52 38 h1 v1 h-1Z M4 39 h2 v1 h-2Z M7 39 h2 v1 h-2Z M11 39 h1 v1 h-1Z M13 39 h2 v1 h-2Z M21 39 h1 v1 h-1Z M23 39 h4 v1 h-4Z M28 39 h5 v1 h-5Z M40 39 h1 v1 h-1Z M43 39 h2 v1 h-2Z M46 39 h1 v1 h-1Z M49 39 h1 v1 h-1Z M51 39 h2 v1 h-2Z M4 40 h1 v1 h-1Z M8 40 h1 v1 h-1Z M11 40 h1 v1 h-1Z M13 40 h1 v1 h-1Z M15 40 h1 v1 h-1Z M18 40 h1 v1 h-1Z M23 40 h3 v1 h-3Z M27 40 h1 v1 h-1Z M29 40 h2 v1 h-2Z M33 40 h1 v1 h-1Z M35 40 h1 v1 h-1Z M37 40 h7 v1 h-7Z M45 40 h2 v1 h-2Z M48 40 h2 v1 h-2Z M52 40 h1 v1 h-1Z M6 41 h1 v1 h-1Z M9 41 h1 v1 h-1Z M11 41 h2 v1 h-2Z M14 41 h1 v1 h-1Z M16 41 h1 v1 h-1Z M19 41 h2 v1 h-2Z M22 41 h1 v1 h-1Z M28 41 h1 v1 h-1Z M30 41 h1 v1 h-1Z M33 41 h2 v1 h-2Z M36 41 h1 v1 h-1Z M41 41 h1 v1 h-1Z M43 41 h1 v1 h-1Z M46 41 h1 v1 h-1Z M48 41 h2 v1 h-2Z M51 41 h1 v1 h-1Z M14 42 h4 v1 h-4Z M20 42 h1 v1 h-1Z M22 42 h1 v1 h-1Z M25 42 h2 v1 h-2Z M29 42 h3 v1 h-3Z M36 42 h2 v1 h-2Z M41 42 h1 v1 h-1Z M43 42 h2 v1 h-2Z M46 42 h3 v1 h-3Z M52 42 h1 v1 h-1Z M11 43 h1 v1 h-1Z M13 43 h2 v1 h-2Z M17 43 h3 v1 h-3Z M25 43 h1 v1 h-1Z M28 43 h1 v1 h-1Z M32 43 h1 v1 h-1Z M34 43 h4 v1 h-4Z M50 43 h3 v1 h-3Z M11 44 h1 v1 h-1Z M13 44 h2 v1 h-2Z M19 44 h1 v1 h-1Z M23 44 h1 v1 h-1Z M25 44 h1 v1 h-1Z M31 44 h1 v1 h-1Z M34 44 h2 v1 h-2Z M43 44 h1 v1 h-1Z M49 44 h1 v1 h-1Z M52 44 h1 v1 h-1Z M16 45 h1 v1 h-1Z M18 45 h1 v1 h-1Z M20 45 h1 v1 h-1Z M24 45 h1 v1 h-1Z M31 45 h1 v1 h-1Z M34 45 h1 v1 h-1Z M36 45 h1 v1 h-1Z M39 45 h1 v1 h-1Z M41 45 h3 v1 h-3Z M49 45 h1 v1 h-1Z M14 46 h6 v1 h-6Z M23 46 h3 v1 h-3Z M31 46 h3 v1 h-3Z M35 46 h4 v1 h-4Z M40 46 h1 v1 h-1Z M49 46 h1 v1 h-1Z M51 46 h2 v1 h-2Z M18 47 h3 v1 h-3Z M22 47 h1 v1 h-1Z M25 47 h1 v1 h-1Z M31 47 h2 v1 h-2Z M34 47 h2 v1 h-2Z M37 47 h2 v1 h-2Z M40 47 h1 v1 h-1Z M42 47 h2 v1 h-2Z M49 47 h1 v1 h-1Z M17 48 h2 v1 h-2Z M25 48 h1 v1 h-1Z M33 48 h1 v1 h-1Z M35 48 h1 v1 h-1Z M37 48 h2 v1 h-2Z M40 48 h1 v1 h-1Z M42 48 h1 v1 h-1Z M50 48 h3 v1 h-3Z M15 49 h1 v1 h-1Z M17 49 h1 v1 h-1Z M21 49 h4 v1 h-4Z M26 49 h1 v1 h-1Z M28 49 h1 v1 h-1Z M32 49 h1 v1 h-1Z M37 49 h1 v1 h-1Z M40 49 h1 v1 h-1Z M46 49 h4 v1 h-4Z M13 50 h1 v1 h-1Z M15 50 h1 v1 h-1Z M17 50 h1 v1 h-1Z M24 50 h2 v1 h-2Z M27 50 h1 v1 h-1Z M29 50 h1 v1 h-1Z M32 50 h1 v1 h-1Z M36 50 h2 v1 h-2Z M39 50 h2 v1 h-2Z M43 50 h1 v1 h-1Z M46 50 h1 v1 h-1Z M51 50 h2 v1 h-2Z M14 51 h3 v1 h-3Z M18 51 h3 v1 h-3Z M22 51 h3 v1 h-3Z M28 51 h1 v1 h-1Z M31 51 h1 v1 h-1Z M33 51 h1 v1 h-1Z M38 51 h1 v1 h-1Z M40 51 h3 v1 h-3Z M46 51 h1 v1 h-1Z M48 51 h2 v1 h-2Z M52 51 h1 v1 h-1Z M14 52 h2 v1 h-2Z M17 52 h7 v1 h-7Z M25 52 h1 v1 h-1Z M27 52 h3 v1 h-3Z M32 52 h1 v1 h-1Z M35 52 h5 v1 h-5Z M42 52 h2 v1 h-2Z M45 52 h1 v1 h-1Z M48 52 h1 v1 h-1Z M51 52 h2 v1 h-2Z " /><path class="qr-1536 " stroke="transparent" fill="#000" fill-opacity="1" d="M4 4 h7 v1 h-7Z M46 4 h7 v1 h-7Z M4 5 h1 v1 h-1Z M10 5 h1 v1 h-1Z M46 5 h1 v1 h-1Z M52 5 h1 v1 h-1Z M4 6 h1 v1 h-1Z M10 6 h1 v1 h-1Z M46 6 h1 v1 h-1Z M52 6 h1 v1 h-1Z M4 7 h1 v1 h-1Z M10 7 h1 v1 h-1Z M46 7 h1 v1 h-1Z M52 7 h1 v1 h-1Z M4 8 h1 v1 h-1Z M10 8 h1 v1 h-1Z M46 8 h1 v1 h-1Z M52 8 h1 v1 h-1Z M4 9 h1 v1 h-1Z M10 9 h1 v1 h-1Z M46 9 h1 v1 h-1Z M52 9 h1 v1 h-1Z M4 10 h7 v1 h-7Z M46 10 h7 v1 h-7Z M4 46 h7 v1 h-7Z M4 47 h1 v1 h-1Z M10 47 h1 v1 h-1Z M4 48 h1 v1 h-1Z M10 48 h1 v1 h-1Z M4 49 h1 v1 h-1Z M10 49 h1 v1 h-1Z M4 50 h1 v1 h-1Z M10 50 h1 v1 h-1Z M4 51 h1 v1 h-1Z M10 51 h1 v1 h-1Z M4 52 h7 v1 h-7Z " /><path class="qr-2560 " stroke="transparent" fill="#000" fill-opacity="1" d="M26 8 h5 v1 h-5Z M26 9 h1 v1 h-1Z M30 9 h1 v1 h-1Z M26 10 h1 v1 h-1Z M28 10 h1 v1 h-1Z M30 10 h1 v1 h-1Z M26 11 h1 v1 h-1Z M30 11 h1 v1 h-1Z M26 12 h5 v1 h-5Z M8 26 h5 v1 h-5Z M26 26 h5 v1 h-5Z M44 26 h5 v1 h-5Z M8 27 h1 v1 h-1Z M12 27 h1 v1 h-1Z M26 27 h1 v1 h-1Z M30 27 h1 v1 h-1Z M44 27 h1 v1 h-1Z M48 27 h1 v1 h-1Z M8 28 h1 v1 h-1Z M10 28 h1 v1 h-1Z M12 28 h1 v1 h-1Z M26 28 h1 v1 h-1Z M28 28 h1 v1 h-1Z M30 28 h1 v1 h-1Z M44 28 h1 v1 h-1Z M46 28 h1 v1 h-1Z M48 28 h1 v1 h-1Z M8 29 h1 v1 h-1Z M12 29 h1 v1 h-1Z M26 29 h1 v1 h-1Z M30 29 h1 v1 h-1Z M44 29 h1 v1 h-1Z M48 29 h1 v1 h-1Z M8 30 h5 v1 h-5Z M26 30 h5 v1 h-5Z M44 30 h5 v1 h-5Z M26 44 h5 v1 h-5Z M44 44 h5 v1 h-5Z M26 45 h1 v1 h-1Z M30 45 h1 v1 h-1Z M44 45 h1 v1 h-1Z M48 45 h1 v1 h-1Z M26 46 h1 v1 h-1Z M28 46 h1 v1 h-1Z M30 46 h1 v1 h-1Z M44 46 h1 v1 h-1Z M46 46 h1 v1 h-1Z M48 46 h1 v1 h-1Z M26 47 h1 v1 h-1Z M30 47 h1 v1 h-1Z M44 47 h1 v1 h-1Z M48 47 h1 v1 h-1Z M26 48 h5 v1 h-5Z M44 48 h5 v1 h-5Z " /><path class="qr-3072 " stroke="transparent" fill="#000" fill-opacity="1" d="M12 10 h1 v1 h-1Z M14 10 h1 v1 h-1Z M16 10 h1 v1 h-1Z M18 10 h1 v1 h-1Z M20 10 h1 v1 h-1Z M22 10 h1 v1 h-1Z M24 10 h1 v1 h-1Z M32 10 h1 v1 h-1Z M34 10 h1 v1 h-1Z M36 10 h1 v1 h-1Z M38 10 h1 v1 h-1Z M40 10 h1 v1 h-1Z M42 10 h1 v1 h-1Z M44 10 h1 v1 h-1Z M10 12 h1 v1 h-1Z M10 14 h1 v1 h-1Z M10 16 h1 v1 h-1Z M10 18 h1 v1 h-1Z M10 20 h1 v1 h-1Z M10 22 h1 v1 h-1Z M10 24 h1 v1 h-1Z M10 32 h1 v1 h-1Z M10 34 h1 v1 h-1Z M10 36 h1 v1 h-1Z M10 38 h1 v1 h-1Z M10 40 h1 v1 h-1Z M10 42 h1 v1 h-1Z M10 44 h1 v1 h-1Z " /><path class="qr-3584 " stroke="transparent" fill="#000" fill-opacity="1" d="M12 6 h1 v1 h-1Z M12 7 h1 v1 h-1Z M12 8 h1 v1 h-1Z M12 9 h1 v1 h-1Z M12 11 h1 v1 h-1Z M4 12 h1 v1 h-1Z M6 12 h4 v1 h-4Z M46 12 h5 v1 h-5Z M12 47 h1 v1 h-1Z M12 48 h1 v1 h-1Z M12 49 h1 v1 h-1Z M12 50 h1 v1 h-1Z M12 52 h1 v1 h-1Z " /><path class="qr-4096 " stroke="transparent" fill="#000" fill-opacity="1" d="M44 4 h1 v1 h-1Z M42 5 h3 v1 h-3Z M43 6 h2 v1 h-2Z M43 7 h1 v1 h-1Z M42 9 h1 v1 h-1Z M5 42 h1 v1 h-1Z M9 42 h1 v1 h-1Z M5 43 h3 v1 h-3Z M4 44 h3 v1 h-3Z " /><path class="qr-5632 " stroke="transparent" fill="#000" fill-opacity="1" d="M6 6 h3 v1 h-3Z M48 6 h3 v1 h-3Z M6 7 h3 v1 h-3Z M48 7 h3 v1 h-3Z M6 8 h3 v1 h-3Z M48 8 h3 v1 h-3Z M6 48 h3 v1 h-3Z M6 49 h3 v1 h-3Z M6 50 h3 v1 h-3Z " /></svg>
